<svg version="1.1" id="Layer_1" xmlns="http://www.w3.org/2000/svg" xmlns:xlink="http://www.w3.org/1999/xlink" x="0px" y="0px"
	 width="100%" viewBox="0 0 237 85" enable-background="new 0 0 237 85" xml:space="preserve">
<path fill="#000000" opacity="1.000000" stroke="none" 
	d="
M187.000000,86.000000 
	C124.666672,86.000000 62.833347,86.000000 1.000017,86.000000 
	C1.000011,57.666676 1.000011,29.333355 1.000005,1.000024 
	C79.999977,1.000016 158.999954,1.000016 237.999954,1.000008 
	C237.999969,29.333311 237.999969,57.666622 237.999985,85.999969 
	C221.166672,86.000000 204.333328,86.000000 187.000000,86.000000 
M100.370422,37.883686 
	C97.854996,33.072365 95.409264,28.222965 92.807037,23.459057 
	C89.312340,17.061296 84.289665,12.184528 76.709908,12.098583 
	C52.959038,11.829282 29.203184,11.999590 5.574081,11.999590 
	C5.411804,13.054566 5.003272,14.201846 5.244915,14.360814 
	C10.858341,18.053680 14.720364,24.757578 22.893404,24.078802 
	C27.994921,23.655115 33.160255,23.999878 38.296951,23.999800 
	C50.955620,23.999607 63.625183,24.304657 76.267746,23.853344 
	C81.538818,23.665176 84.495598,25.862978 86.532799,30.057161 
	C92.747910,42.852749 98.945930,55.658436 104.956367,68.550743 
	C107.313438,73.606636 110.859940,76.967125 116.334167,77.950958 
	C122.705414,79.096016 127.252533,76.094170 129.978500,70.648102 
	C136.467453,57.684135 142.805054,44.640068 148.937164,31.503887 
	C151.526962,25.956039 153.863510,23.886597 159.996445,24.026672 
	C170.229279,24.260389 180.457245,24.878017 190.689163,24.925484 
	C198.074646,24.959751 205.503510,23.700987 212.839417,24.170029 
	C220.654312,24.669695 225.773575,20.769497 230.655075,15.809179 
	C231.453201,14.998153 231.758575,13.702199 232.604980,12.000543 
	C208.141052,12.000543 184.529846,11.596322 160.946671,12.231881 
	C153.264145,12.438921 146.436966,16.504782 142.985260,24.298754 
	C140.977005,28.833393 139.128952,33.447357 136.913605,37.878014 
	C135.947815,39.809589 134.241379,41.370846 132.917175,42.432423 
	C133.555267,40.401436 135.279877,37.911781 134.648697,36.416630 
	C131.432220,28.797365 128.006866,21.202129 123.851013,14.066510 
	C121.155731,9.438717 115.730026,9.651374 113.026184,14.400989 
	C108.659302,22.071959 105.024155,30.159489 100.370422,37.883686 
M182.493423,39.971020 
	C184.491791,39.980267 186.517181,39.780533 188.483856,40.034901 
	C197.034195,41.140793 203.703201,37.552864 209.507462,31.784729 
	C209.987213,31.307968 210.171295,30.347755 210.139511,29.627758 
	C210.125519,29.310869 209.224976,28.773811 208.728165,28.775187 
	C193.432632,28.817568 178.112717,29.447475 162.853775,28.744629 
	C156.613678,28.457201 151.825256,27.876904 150.249084,35.296005 
	C149.866928,37.094852 149.177322,38.828384 148.813278,39.999458 
	C160.371094,39.999458 170.933517,39.999458 182.493423,39.971020 
M48.504379,29.009834 
	C41.361324,29.009834 34.218273,29.009834 27.152079,29.009834 
	C28.755972,34.204494 37.622581,39.941284 44.637726,39.987534 
	C53.279560,40.044510 61.923542,40.096470 70.563736,39.963844 
	C75.940941,39.881306 81.314240,39.476524 86.685532,39.153687 
	C87.450851,39.107689 88.194847,38.706879 88.948708,38.470280 
	C88.813530,38.050762 88.765945,37.571560 88.527863,37.222160 
	C87.550865,35.788334 86.596199,34.326385 85.481537,33.002579 
	C84.136261,31.404863 82.659950,28.644823 81.201057,28.619127 
	C70.640518,28.433136 60.070049,28.810818 48.504379,29.009834 
M142.131516,53.984352 
	C152.586395,53.989429 163.041626,54.047901 173.496048,53.981258 
	C180.748047,53.935032 187.197815,48.443451 186.442062,43.367176 
	C184.373062,43.584347 182.331329,43.971413 180.287292,43.983925 
	C170.330673,44.044865 160.373047,43.962215 150.416885,44.052921 
	C149.063202,44.065250 147.143967,44.338024 146.473022,45.231209 
	C144.481583,47.882301 142.982971,50.903606 142.131516,53.984352 
M91.812340,54.000252 
	C92.798073,53.702393 93.783806,53.404533 94.821342,53.091019 
	C93.513008,50.726326 91.654770,48.822269 91.533325,46.813225 
	C91.342941,43.663830 90.153748,43.908756 87.660820,43.901794 
	C75.979156,43.869167 64.298813,43.451221 52.616821,43.233849 
	C51.927490,43.221024 50.799942,43.607517 50.635006,44.075550 
	C50.396992,44.750938 50.588440,45.893944 51.056324,46.452015 
	C54.956013,51.103390 59.712826,54.074261 66.059555,54.011967 
	C74.352516,53.930569 82.646927,53.997829 91.812340,54.000252 
z"/>
<path fill="#FDFDFD" opacity="1.000000" stroke="none" 
	d="
M132.871307,43.100281 
	C134.241379,41.370846 135.947815,39.809589 136.913605,37.878014 
	C139.128952,33.447357 140.977005,28.833393 142.985260,24.298754 
	C146.436966,16.504782 153.264145,12.438921 160.946671,12.231881 
	C184.529846,11.596322 208.141052,12.000543 232.604980,12.000543 
	C231.758575,13.702199 231.453201,14.998153 230.655075,15.809179 
	C225.773575,20.769497 220.654312,24.669695 212.839417,24.170029 
	C205.503510,23.700987 198.074646,24.959751 190.689163,24.925484 
	C180.457245,24.878017 170.229279,24.260389 159.996445,24.026672 
	C153.863510,23.886597 151.526962,25.956039 148.937164,31.503887 
	C142.805054,44.640068 136.467453,57.684135 129.978500,70.648102 
	C127.252533,76.094170 122.705414,79.096016 116.334167,77.950958 
	C110.859940,76.967125 107.313438,73.606636 104.956367,68.550743 
	C98.945930,55.658436 92.747910,42.852749 86.532799,30.057161 
	C84.495598,25.862978 81.538818,23.665176 76.267746,23.853344 
	C63.625183,24.304657 50.955620,23.999607 38.296951,23.999800 
	C33.160255,23.999878 27.994921,23.655115 22.893404,24.078802 
	C14.720364,24.757578 10.858341,18.053680 5.244915,14.360814 
	C5.003272,14.201846 5.411804,13.054566 5.574081,11.999590 
	C29.203184,11.999590 52.959038,11.829282 76.709908,12.098583 
	C84.289665,12.184528 89.312340,17.061296 92.807037,23.459057 
	C95.409264,28.222965 97.854996,33.072365 100.690048,37.940956 
	C101.009666,37.998222 100.937645,37.927063 100.913826,38.270775 
	C102.582008,42.706852 104.141129,46.860657 105.998108,50.876732 
	C108.583992,56.469177 111.166702,62.085651 114.181877,67.449501 
	C116.369148,71.340530 120.146278,70.982819 122.399544,66.938232 
	C123.170143,65.561699 123.623344,64.318947 124.405693,62.929615 
	C125.717834,60.618034 126.700836,58.453026 127.683838,56.288021 
	C127.394005,56.133121 127.104172,55.978218 126.814331,55.823318 
	C125.622360,58.015957 124.430382,60.208595 122.995209,62.613853 
	C122.300774,63.964409 121.849533,65.102348 121.120270,66.486893 
	C119.479469,68.673676 118.314880,71.020866 116.423088,66.977440 
	C114.312126,62.465561 111.844177,58.120701 109.531609,53.703144 
	C109.833084,53.340809 110.134560,52.978470 110.436043,52.616135 
	C115.191414,57.623924 119.947960,62.802368 124.185097,53.227379 
	C125.703308,54.052204 126.929649,54.718460 128.898285,55.787998 
	C130.400681,51.095009 131.711060,47.001839 132.986816,42.958855 
	C132.952194,43.009033 132.871307,43.100285 132.871307,43.100281 
z"/>
<path fill="#FDFDFD" opacity="1.000000" stroke="none" 
	d="
M181.994675,39.985237 
	C170.933517,39.999458 160.371094,39.999458 148.813278,39.999458 
	C149.177322,38.828384 149.866928,37.094852 150.249084,35.296005 
	C151.825256,27.876904 156.613678,28.457201 162.853775,28.744629 
	C178.112717,29.447475 193.432632,28.817568 208.728165,28.775187 
	C209.224976,28.773811 210.125519,29.310869 210.139511,29.627758 
	C210.171295,30.347755 209.987213,31.307968 209.507462,31.784729 
	C203.703201,37.552864 197.034195,41.140793 188.483856,40.034901 
	C186.517181,39.780533 184.491791,39.980267 181.994675,39.985237 
z"/>
<path fill="#FDFDFD" opacity="1.000000" stroke="none" 
	d="
M49.003551,29.009937 
	C60.070049,28.810818 70.640518,28.433136 81.201057,28.619127 
	C82.659950,28.644823 84.136261,31.404863 85.481537,33.002579 
	C86.596199,34.326385 87.550865,35.788334 88.527863,37.222160 
	C88.765945,37.571560 88.813530,38.050762 88.948708,38.470280 
	C88.194847,38.706879 87.450851,39.107689 86.685532,39.153687 
	C81.314240,39.476524 75.940941,39.881306 70.563736,39.963844 
	C61.923542,40.096470 53.279560,40.044510 44.637726,39.987534 
	C37.622581,39.941284 28.755972,34.204494 27.152079,29.009834 
	C34.218273,29.009834 41.361324,29.009834 49.003551,29.009937 
z"/>
<path fill="#FDFDFD" opacity="1.000000" stroke="none" 
	d="
M101.044815,38.034653 
	C105.024155,30.159489 108.659302,22.071959 113.026184,14.400989 
	C115.730026,9.651374 121.155731,9.438717 123.851013,14.066510 
	C128.006866,21.202129 131.432220,28.797365 134.648697,36.416630 
	C135.279877,37.911781 133.555267,40.401436 132.894241,42.766354 
	C132.871307,43.100285 132.952194,43.009033 132.639542,43.086945 
	C131.644135,44.508690 130.961365,45.852528 129.735443,48.265450 
	C127.893066,42.769489 126.633362,38.364143 124.938339,34.133186 
	C123.160683,29.695950 120.965500,25.425985 118.307320,19.690115 
	C114.092087,29.579193 110.404716,38.229904 106.659798,47.015617 
	C105.828705,45.526928 105.045921,43.974056 104.121826,42.510414 
	C103.129639,40.938931 102.004669,39.451290 100.937645,37.927063 
	C100.937645,37.927063 101.009666,37.998222 101.044815,38.034653 
z"/>
<path fill="#FDFDFD" opacity="1.000000" stroke="none" 
	d="
M141.711609,53.882271 
	C142.982971,50.903606 144.481583,47.882301 146.473022,45.231209 
	C147.143967,44.338024 149.063202,44.065250 150.416885,44.052921 
	C160.373047,43.962215 170.330673,44.044865 180.287292,43.983925 
	C182.331329,43.971413 184.373062,43.584347 186.442062,43.367176 
	C187.197815,48.443451 180.748047,53.935032 173.496048,53.981258 
	C163.041626,54.047901 152.586395,53.989429 141.711609,53.882271 
z"/>
<path fill="#FDFDFD" opacity="1.000000" stroke="none" 
	d="
M91.376526,54.000694 
	C82.646927,53.997829 74.352516,53.930569 66.059555,54.011967 
	C59.712826,54.074261 54.956013,51.103390 51.056324,46.452015 
	C50.588440,45.893944 50.396992,44.750938 50.635006,44.075550 
	C50.799942,43.607517 51.927490,43.221024 52.616821,43.233849 
	C64.298813,43.451221 75.979156,43.869167 87.660820,43.901794 
	C90.153748,43.908756 91.342941,43.663830 91.533325,46.813225 
	C91.654770,48.822269 93.513008,50.726326 94.821342,53.091019 
	C93.783806,53.404533 92.798073,53.702393 91.376526,54.000694 
z"/>
<path fill="#000000" opacity="1.000000" stroke="none" 
	d="
M100.913826,38.270775 
	C102.004669,39.451290 103.129639,40.938931 104.121826,42.510414 
	C105.045921,43.974056 105.828705,45.526928 106.659798,47.015617 
	C110.404716,38.229904 114.092087,29.579193 118.307320,19.690115 
	C120.965500,25.425985 123.160683,29.695950 124.938339,34.133186 
	C126.633362,38.364143 127.893066,42.769489 129.735443,48.265450 
	C130.961365,45.852528 131.644135,44.508690 132.674164,43.036766 
	C131.711060,47.001839 130.400681,51.095009 128.898285,55.787998 
	C126.929649,54.718460 125.703308,54.052204 124.185097,53.227379 
	C119.947960,62.802368 115.191414,57.623924 110.436043,52.616135 
	C110.134560,52.978470 109.833084,53.340809 109.531609,53.703144 
	C111.844177,58.120701 114.312126,62.465561 116.423088,66.977440 
	C118.314880,71.020866 119.479469,68.673676 121.283218,66.701416 
	C121.843513,66.803566 121.962837,66.937798 122.082153,67.072021 
	C120.146278,70.982819 116.369148,71.340530 114.181877,67.449501 
	C111.166702,62.085651 108.583992,56.469177 105.998108,50.876732 
	C104.141129,46.860657 102.582008,42.706852 100.913826,38.270775 
z"/>
<path fill="#000000" opacity="1.000000" stroke="none" 
	d="
M123.238403,62.401234 
	C124.430382,60.208595 125.622360,58.015957 126.814331,55.823318 
	C127.104172,55.978218 127.394005,56.133121 127.683838,56.288021 
	C126.700836,58.453026 125.717834,60.618034 124.202553,62.752937 
	C123.526314,62.615639 123.382362,62.508438 123.238403,62.401234 
z"/>
<path fill="#000000" opacity="1.000000" stroke="none" 
	d="
M123.873413,62.899513 
	C123.623344,64.318947 123.170143,65.561699 122.399544,66.938232 
	C121.962837,66.937798 121.843513,66.803566 121.561249,66.454803 
	C121.849533,65.102348 122.300774,63.964409 122.995209,62.613853 
	C123.382362,62.508438 123.526314,62.615639 123.873413,62.899513 
z"/>
</svg>